<svg width="143" height="21" viewBox="0 0 143 21" fill="none" xmlns="http://www.w3.org/2000/svg">
<path d="M6.23422 2.76358C6.23422 1.93243 7.00241 0.602585 10.2229 0.457134C10.3707 0.436353 10.4888 0.35324 10.4888 0.228567C10.4888 -1.29495e-07 10.2525 0 9.92747 0C6.97287 0 4.28417 1.05972 4.25463 2.59735V7.33491C4.25463 8.14529 4.25463 8.81021 3.07279 9.49591C2.03868 10.0985 0.915927 10.14 0.265916 10.1608C0.118185 10.1816 0 10.2647 0 10.3894C0 10.5972 0.177276 10.5972 0.472737 10.618C2.42278 10.7011 3.84099 11.4491 4.16599 12.4673C4.25463 12.6958 4.25463 12.7374 4.25463 13.4854V17.5996C4.25463 18.4723 4.25463 19.1373 5.67284 19.9269C6.82514 20.5502 8.77517 20.7788 9.92747 20.7788C10.2525 20.7788 10.4888 20.7788 10.4888 20.5502C10.4888 20.3424 10.3116 20.3424 10.0161 20.3217C8.15471 20.2385 6.70695 19.5736 6.32285 18.5139C6.23421 18.3269 6.23422 18.2853 6.23422 17.5373V13.1738C6.23422 12.2179 5.99785 11.8647 5.05237 11.1998C4.4319 10.7634 3.57507 10.5556 2.74778 10.3894C5.17056 9.91148 6.23422 8.95566 6.23422 7.75049V2.76358Z" fill="black"/>
<path d="M26.6506 7.10638C25.7051 7.23106 25.3505 7.72975 25.3505 8.12455C25.3505 8.62324 25.9119 8.78947 26.3255 8.78947C27.2119 8.78947 27.8324 8.24922 27.8324 7.68819C27.8324 6.81548 26.4142 6.42068 25.1733 6.42068C23.3709 6.42068 22.3664 7.66741 22.1005 8.06221C21.4209 6.5038 19.5891 6.42068 19.0572 6.42068C16.0435 6.42068 14.448 9.14271 14.448 9.59984C14.448 9.68295 14.5662 9.78685 14.773 9.78685C15.0094 9.78685 15.0685 9.66218 15.1276 9.57906C16.1322 7.27262 18.1117 6.83626 18.9686 6.83626C20.2982 6.83626 20.5641 7.70897 20.5641 8.20766C20.5641 8.66479 20.3868 9.14271 20.0322 10.1401L19.0277 12.9868C18.5845 14.2335 17.7277 15.3763 16.1617 15.3763C16.014 15.3763 15.2753 15.3763 14.6549 15.1062C15.7185 14.9608 15.9549 14.3374 15.9549 14.0881C15.9549 13.6725 15.5117 13.4231 14.9503 13.4231C14.2412 13.4231 13.473 13.8595 13.473 14.5244C13.473 15.3971 14.8617 15.7919 16.1322 15.7919C17.5504 15.7919 18.5549 15.0023 19.1754 14.1504C19.6481 15.3763 21.1254 15.7919 22.2186 15.7919C25.2323 15.7919 26.8278 13.0699 26.8278 12.6128C26.8278 12.5089 26.7096 12.4258 26.5324 12.4258C26.2665 12.4258 26.2369 12.5296 26.1483 12.6959C25.3505 14.5244 23.6369 15.3763 22.3073 15.3763C21.2732 15.3763 20.7118 14.8361 20.7118 13.9842C20.7118 13.527 20.83 13.1946 21.3027 11.8232L22.3368 8.99726C22.78 7.75053 23.7846 6.83626 25.1437 6.83626C25.2028 6.83626 26.0301 6.83626 26.6506 7.10638Z" fill="black"/>
<path d="M47.4403 10.7842H55.595C56.0087 10.7842 56.5405 10.7842 56.5405 10.4102C56.5405 10.0154 56.0382 10.0154 55.595 10.0154H47.4403V4.28046C47.4403 3.98956 47.4403 3.61554 46.9085 3.61554C46.3471 3.61554 46.3471 3.96878 46.3471 4.28046V10.0154H38.1924C37.7787 10.0154 37.2469 10.0154 37.2469 10.3894C37.2469 10.7842 37.7492 10.7842 38.1924 10.7842H46.3471V16.5192C46.3471 16.8101 46.3471 17.1841 46.8789 17.1841C47.4403 17.1841 47.4403 16.8308 47.4403 16.5192V10.7842Z" fill="black"/>
<path d="M72.489 17.9114C71.6912 18.7009 70.5389 19.4074 69.0912 19.4074C68.7366 19.4074 67.3184 19.3659 66.8752 18.41C66.9639 18.4308 67.1116 18.4308 67.1707 18.4308C68.0571 18.4308 68.648 17.8906 68.648 17.4127C68.648 16.9348 68.0866 16.7685 67.6434 16.7685C67.1707 16.7685 66.1366 17.0179 66.1366 18.036C66.1366 19.0957 67.4071 19.823 69.0912 19.823C72.0458 19.823 75.0299 17.9114 75.8572 15.6049L78.7527 7.50118C78.7823 7.39729 78.8414 7.27262 78.8414 7.14794C78.8414 6.83626 78.4868 6.62847 78.0436 6.62847C77.7777 6.62847 77.1573 6.71159 76.9209 7.33495L74.7345 13.4439C74.5867 13.8179 74.5867 13.8595 74.3504 14.0881C73.7595 14.6699 72.7844 15.3763 71.3662 15.3763C69.7116 15.3763 69.5639 14.2335 69.5639 13.6725C69.5639 12.4881 70.3617 10.8881 71.1594 9.39205C71.4844 8.78947 71.6617 8.49856 71.6617 8.08299C71.6617 7.21028 70.7753 6.42068 69.3276 6.42068C66.6093 6.42068 65.5161 9.43361 65.5161 9.59984C65.5161 9.68295 65.6343 9.78685 65.8411 9.78685C66.107 9.78685 66.1366 9.70373 66.2548 9.41283C66.9639 7.66741 68.0866 6.83626 69.2389 6.83626C69.5048 6.83626 70.0071 6.83626 70.0071 7.52196C70.0071 8.06221 69.6821 8.66479 69.2389 9.45439C67.7912 12.1764 67.7912 12.8621 67.7912 13.3608C67.7912 15.3348 69.8003 15.7919 71.2776 15.7919C72.1344 15.7919 73.1981 15.6049 74.2322 14.8361L74.2617 14.8569C73.8185 16.0828 73.5231 16.8932 72.489 17.9114Z" fill="black"/>
<path d="M98.2391 10.7842H106.394C106.807 10.7842 107.339 10.7842 107.339 10.4102C107.339 10.0154 106.837 10.0154 106.394 10.0154H98.2391V4.28046C98.2391 3.98956 98.2391 3.61554 97.7072 3.61554C97.1459 3.61554 97.1459 3.96878 97.1459 4.28046V10.0154H88.9912C88.5775 10.0154 88.0457 10.0154 88.0457 10.3894C88.0457 10.7842 88.548 10.7842 88.9912 10.7842H97.1459V16.5192C97.1459 16.8101 97.1459 17.1841 97.6777 17.1841C98.2391 17.1841 98.2391 16.8308 98.2391 16.5192V10.7842Z" fill="black"/>
<path d="M119.269 13.901C120.54 12.8829 121.574 12.2387 123.051 11.3037C124.824 10.2232 125.592 9.70373 126.006 9.39205C128.074 7.95831 129.108 6.75315 129.108 6.58691C129.108 6.42068 128.872 6.42068 128.813 6.42068C128.606 6.42068 128.547 6.5038 128.399 6.64925C127.661 7.54274 126.951 7.97909 126.183 7.97909C125.563 7.97909 125.238 7.79209 124.676 7.29339C124.056 6.77392 123.554 6.42068 122.697 6.42068C120.54 6.42068 119.24 8.31155 119.24 8.74791C119.24 8.81025 119.269 8.93492 119.535 8.93492C119.772 8.93492 119.801 8.8518 119.89 8.70635C120.392 7.8752 121.81 7.72975 122.372 7.72975C122.992 7.72975 123.583 7.8752 124.204 8.06221C125.326 8.39467 125.799 8.39467 126.095 8.39467C126.301 8.39467 126.42 8.39467 126.567 8.37389C125.592 9.18426 123.997 10.1816 122.667 11.0336L119.683 12.966C117.881 14.2543 116.788 15.4802 116.788 15.6257C116.788 15.7504 116.935 15.7919 117.113 15.7919C117.29 15.7919 117.319 15.7711 117.526 15.5218C117.999 15.0023 118.944 14.2335 120.038 14.2335C120.658 14.2335 120.954 14.379 121.545 14.8984C122.106 15.3556 122.608 15.7919 123.554 15.7919C126.449 15.7919 128.104 13.153 128.104 12.6751C128.104 12.592 128.074 12.4673 127.779 12.4673C127.542 12.4673 127.513 12.5504 127.424 12.7582C126.774 13.9842 125.031 14.4829 123.879 14.4829C123.258 14.4829 122.667 14.3374 122.047 14.1504C120.865 13.8179 120.54 13.8179 120.156 13.8179C119.86 13.8179 119.535 13.8179 119.269 13.901Z" fill="black"/>
<path d="M136.655 18.0152C136.655 18.8464 135.887 20.1762 132.666 20.3217C132.518 20.3424 132.4 20.4256 132.4 20.5502C132.4 20.7788 132.725 20.7788 132.991 20.7788C135.857 20.7788 138.605 19.7606 138.634 18.1814V13.4439C138.634 12.6335 138.634 11.9686 139.816 11.2829C140.85 10.6803 141.973 10.6387 142.623 10.618C142.771 10.5972 142.889 10.5141 142.889 10.3894C142.889 10.1816 142.712 10.1816 142.416 10.1608C140.466 10.0777 139.048 9.32968 138.723 8.31152C138.634 8.08295 138.634 8.04139 138.634 7.29336V3.17916C138.634 2.30645 138.634 1.64152 137.216 0.85193C136.034 0.207788 133.996 0 132.991 0C132.725 0 132.4 -1.29495e-07 132.4 0.228567C132.4 0.436354 132.578 0.436353 132.873 0.457134C134.734 0.540248 136.182 1.20517 136.566 2.26489C136.655 2.4519 136.655 2.49346 136.655 3.24149V7.60504C136.655 8.56086 136.891 8.9141 137.837 9.57902C138.457 10.0154 139.314 10.2232 140.141 10.3894C137.719 10.8673 136.655 11.8231 136.655 13.0283V18.0152Z" fill="black"/>
</svg>
