<svg width="106" height="25" viewBox="0 0 106 25" fill="none" xmlns="http://www.w3.org/2000/svg">
<path d="M4.25463 9.12189C4.25463 10.5764 3.22052 11.366 0.236367 12.1971C0.0886394 12.2387 0 12.3218 0 12.4465C0 12.6127 0.0590913 12.6751 0.295461 12.7374C4.25463 13.8179 4.25463 14.9399 4.25463 16.1036V21.8385C4.28417 22.3995 4.72737 23.1683 6.02739 23.7917C7.47515 24.4774 9.86838 24.9138 10.1343 24.9138C10.4297 24.9138 10.5184 24.8307 10.5184 24.6436C10.5184 24.4566 10.4593 24.4359 10.0161 24.332C9.15927 24.1034 6.85468 23.4593 6.38194 22.1917C6.29331 21.9424 6.29331 21.9008 6.29331 21.132V16.0412C6.29331 14.9607 6.29331 13.4439 1.4773 12.4673C6.29331 11.4283 6.29331 10.0154 6.29331 8.85176V3.76096C6.29331 2.61813 6.29331 1.53763 10.3116 0.498691C10.5184 0.457134 10.5184 0.311683 10.5184 0.270124C10.5184 0.0831157 10.4297 0 10.1343 0C9.92747 0 5.76148 0.664922 4.72737 2.03632C4.25463 2.65969 4.25463 2.84669 4.25463 3.74018V9.12189Z" fill="black"/>
<path d="M18.9194 15.3557C17.8853 16.5816 16.8807 16.9972 15.4625 17.0595C15.1375 17.0803 14.9011 17.0803 14.9011 17.4543C14.9011 17.579 15.0489 17.6621 15.2557 17.6621C15.7875 17.6621 17.1171 17.6205 17.6489 17.6205C18.5057 17.6205 19.4512 17.6621 20.2785 17.6621C20.4558 17.6621 20.8103 17.6621 20.8103 17.2673C20.8103 17.0803 20.574 17.0595 20.3967 17.0595C19.7171 17.018 19.1558 16.8517 19.1558 16.353C19.1558 16.0621 19.333 15.8336 19.7171 15.3764L21.9626 12.7583H29.4969C29.5264 12.9453 29.5264 13.1116 29.556 13.2986C29.6446 13.8388 29.9991 15.9998 29.9991 16.3946C29.9991 17.018 28.4923 17.0595 28.0196 17.0595C27.6946 17.0595 27.3695 17.0595 27.3695 17.4335C27.3695 17.6621 27.6355 17.6621 27.8127 17.6621C28.315 17.6621 28.9059 17.6205 29.4082 17.6205H31.0923C32.8947 17.6205 34.1947 17.6621 34.2242 17.6621C34.4311 17.6621 34.7561 17.6621 34.7561 17.2673C34.7561 17.0595 34.4901 17.0595 34.047 17.0595C32.4219 17.0595 32.3924 16.8725 32.3037 16.2491L30.5014 3.28318C30.4423 2.86761 30.3242 2.82605 29.9991 2.82605C29.7037 2.82605 29.5264 2.86761 29.2605 3.17929L18.9194 15.3557ZM22.4649 12.1557L28.4037 5.17405L29.4082 12.1557H22.4649Z" fill="black"/>
<path d="M60.2023 5.98444C60.2023 5.61042 60.2023 5.2364 59.6114 5.2364C59.0205 5.2364 59.0205 5.61042 59.0205 5.98444V13.5064C59.0205 16.6232 54.2045 17.2881 51.9885 17.2881C50.659 17.2881 48.7976 17.1011 47.2316 16.3946C44.9566 15.3765 44.9566 14.0466 44.9566 13.4856V5.98444C44.9566 5.61042 44.9566 5.2364 44.3657 5.2364C43.7748 5.2364 43.7747 5.61042 43.7747 5.98444V13.5895C43.7747 16.7479 48.2953 18.1193 51.9885 18.1193C55.8295 18.1193 60.2023 16.6647 60.2023 13.6103V5.98444Z" fill="black"/>
<path d="M79.2266 4.88317C79.4925 4.11436 79.6107 4.0728 80.763 4.0728H84.604C87.9427 4.0728 87.9427 6.06756 87.9427 6.25457C87.9427 7.93765 85.5495 10.0779 81.6494 10.0779H77.3947L79.2266 4.88317ZM84.2199 10.2441C87.4404 9.82852 90.3655 8.24934 90.3655 6.33769C90.3655 4.71694 88.3268 3.47021 84.9881 3.47021H75.5038C74.9424 3.47021 74.6765 3.47021 74.6765 3.86501C74.6765 4.0728 74.9424 4.0728 75.3856 4.0728C77.1879 4.0728 77.1879 4.23903 77.1879 4.4676C77.1879 4.50915 77.1879 4.63383 77.0697 4.94551L73.081 16.1245C72.8151 16.8518 72.756 17.0595 70.6878 17.0595C70.1264 17.0595 69.831 17.0595 69.831 17.4336C69.831 17.6621 70.0082 17.6621 70.5992 17.6621H80.7335C85.254 17.6621 88.7404 15.2518 88.7404 13.1531C88.7404 11.4493 86.6131 10.4103 84.2199 10.2441ZM80.0243 17.0595H76.0356C75.622 17.0595 75.5629 17.0595 75.3856 17.0388C75.0606 17.018 75.0311 16.9764 75.0311 16.8102C75.0311 16.6647 75.0902 16.5401 75.1492 16.3531L77.2175 10.4934H82.7721C86.2586 10.4934 86.2586 12.7791 86.2586 12.9453C86.2586 14.9401 83.6881 17.0595 80.0243 17.0595Z" fill="black"/>
<path d="M101.514 15.7919C101.514 15.1062 101.514 13.8179 105.296 12.7582C105.68 12.6543 105.739 12.6543 105.739 12.4465C105.739 12.405 105.739 12.2595 105.532 12.2179C101.514 11.1167 101.514 9.99461 101.514 8.81022V3.07528C101.455 1.95322 100.155 1.30908 99.682 1.08051C98.4116 0.477928 95.9297 1.52588e-05 95.6047 1.52588e-05C95.3092 1.52588e-05 95.2206 0.103909 95.2206 0.270139C95.2206 0.457149 95.3683 0.498706 95.5751 0.540265C99.4752 1.5792 99.4752 2.61814 99.4752 3.78176V8.87256C99.4752 10.0154 99.4752 11.4283 104.262 12.4465C99.4752 13.5686 99.4752 14.7737 99.4752 16.062V21.1528C99.4752 22.2333 99.4752 23.3346 95.6933 24.332C95.3388 24.4359 95.2206 24.4566 95.2206 24.6437C95.2206 24.8099 95.3092 24.9138 95.6047 24.9138C95.6342 24.9138 99.5343 24.3943 100.923 23.0229C101.514 22.4203 101.514 21.9632 101.514 21.1736V15.7919Z" fill="black"/>
</svg>
