<svg width="143" height="180" viewBox="0 0 143 180" fill="none" xmlns="http://www.w3.org/2000/svg">
<path d="M6.23422 2.76358C6.23422 1.93243 7.00241 0.602585 10.2229 0.457134C10.3707 0.436353 10.4888 0.35324 10.4888 0.228567C10.4888 -1.29495e-07 10.2525 0 9.92747 0C6.97287 0 4.28417 1.05972 4.25463 2.59735V7.33491C4.25463 8.14529 4.25463 8.81021 3.07279 9.49591C2.03868 10.0985 0.915927 10.14 0.265916 10.1608C0.118185 10.1816 0 10.2647 0 10.3894C0 10.5972 0.177276 10.5972 0.472737 10.618C2.42278 10.7011 3.84099 11.4491 4.16599 12.4673C4.25463 12.6958 4.25463 12.7374 4.25463 13.4854V17.5996C4.25463 18.4723 4.25463 19.1373 5.67284 19.9269C6.82514 20.5502 8.77517 20.7788 9.92747 20.7788C10.2525 20.7788 10.4888 20.7788 10.4888 20.5502C10.4888 20.3424 10.3116 20.3424 10.0161 20.3217C8.15471 20.2385 6.70695 19.5736 6.32285 18.5139C6.23421 18.3269 6.23422 18.2853 6.23422 17.5373V13.1738C6.23422 12.2179 5.99785 11.8647 5.05237 11.1998C4.4319 10.7634 3.57507 10.5556 2.74778 10.3894C5.17056 9.91148 6.23422 8.95566 6.23422 7.75049V2.76358Z" fill="black"/>
<path d="M26.6506 7.10638C25.7051 7.23106 25.3505 7.72975 25.3505 8.12455C25.3505 8.62324 25.9119 8.78947 26.3255 8.78947C27.2119 8.78947 27.8324 8.24922 27.8324 7.68819C27.8324 6.81548 26.4142 6.42068 25.1733 6.42068C23.3709 6.42068 22.3664 7.66741 22.1005 8.06221C21.4209 6.5038 19.5891 6.42068 19.0572 6.42068C16.0435 6.42068 14.448 9.14271 14.448 9.59984C14.448 9.68295 14.5662 9.78685 14.773 9.78685C15.0094 9.78685 15.0685 9.66218 15.1276 9.57906C16.1322 7.27262 18.1117 6.83626 18.9686 6.83626C20.2982 6.83626 20.5641 7.70897 20.5641 8.20766C20.5641 8.66479 20.3868 9.14271 20.0322 10.1401L19.0277 12.9868C18.5845 14.2335 17.7277 15.3763 16.1617 15.3763C16.014 15.3763 15.2753 15.3763 14.6549 15.1062C15.7185 14.9608 15.9549 14.3374 15.9549 14.0881C15.9549 13.6725 15.5117 13.4231 14.9503 13.4231C14.2412 13.4231 13.473 13.8595 13.473 14.5244C13.473 15.3971 14.8617 15.7919 16.1322 15.7919C17.5504 15.7919 18.5549 15.0023 19.1754 14.1504C19.6481 15.3763 21.1254 15.7919 22.2186 15.7919C25.2323 15.7919 26.8278 13.0699 26.8278 12.6128C26.8278 12.5089 26.7096 12.4258 26.5324 12.4258C26.2665 12.4258 26.2369 12.5296 26.1483 12.6959C25.3505 14.5244 23.6369 15.3763 22.3073 15.3763C21.2732 15.3763 20.7118 14.8361 20.7118 13.9842C20.7118 13.527 20.83 13.1946 21.3027 11.8232L22.3368 8.99726C22.78 7.75053 23.7846 6.83626 25.1437 6.83626C25.2028 6.83626 26.0301 6.83626 26.6506 7.10638Z" fill="black"/>
<path d="M47.4403 10.7842H55.595C56.0087 10.7842 56.5405 10.7842 56.5405 10.4102C56.5405 10.0154 56.0382 10.0154 55.595 10.0154H47.4403V4.28046C47.4403 3.98956 47.4403 3.61554 46.9085 3.61554C46.3471 3.61554 46.3471 3.96878 46.3471 4.28046V10.0154H38.1924C37.7787 10.0154 37.2469 10.0154 37.2469 10.3894C37.2469 10.7842 37.7492 10.7842 38.1924 10.7842H46.3471V16.5192C46.3471 16.8101 46.3471 17.1841 46.8789 17.1841C47.4403 17.1841 47.4403 16.8308 47.4403 16.5192V10.7842Z" fill="black"/>
<path d="M72.489 17.9114C71.6912 18.7009 70.5389 19.4074 69.0912 19.4074C68.7366 19.4074 67.3184 19.3659 66.8752 18.41C66.9639 18.4308 67.1116 18.4308 67.1707 18.4308C68.0571 18.4308 68.648 17.8906 68.648 17.4127C68.648 16.9348 68.0866 16.7685 67.6434 16.7685C67.1707 16.7685 66.1366 17.0179 66.1366 18.036C66.1366 19.0957 67.4071 19.823 69.0912 19.823C72.0458 19.823 75.0299 17.9114 75.8572 15.6049L78.7527 7.50118C78.7823 7.39729 78.8414 7.27262 78.8414 7.14794C78.8414 6.83626 78.4868 6.62847 78.0436 6.62847C77.7777 6.62847 77.1573 6.71159 76.9209 7.33495L74.7345 13.4439C74.5867 13.8179 74.5867 13.8595 74.3504 14.0881C73.7595 14.6699 72.7844 15.3763 71.3662 15.3763C69.7116 15.3763 69.5639 14.2335 69.5639 13.6725C69.5639 12.4881 70.3617 10.8881 71.1594 9.39205C71.4844 8.78947 71.6617 8.49856 71.6617 8.08299C71.6617 7.21028 70.7753 6.42068 69.3276 6.42068C66.6093 6.42068 65.5161 9.43361 65.5161 9.59984C65.5161 9.68295 65.6343 9.78685 65.8411 9.78685C66.107 9.78685 66.1366 9.70373 66.2548 9.41283C66.9639 7.66741 68.0866 6.83626 69.2389 6.83626C69.5048 6.83626 70.0071 6.83626 70.0071 7.52196C70.0071 8.06221 69.6821 8.66479 69.2389 9.45439C67.7912 12.1764 67.7912 12.8621 67.7912 13.3608C67.7912 15.3348 69.8003 15.7919 71.2776 15.7919C72.1344 15.7919 73.1981 15.6049 74.2322 14.8361L74.2617 14.8569C73.8185 16.0828 73.5231 16.8932 72.489 17.9114Z" fill="black"/>
<path d="M98.2391 10.7842H106.394C106.807 10.7842 107.339 10.7842 107.339 10.4102C107.339 10.0154 106.837 10.0154 106.394 10.0154H98.2391V4.28046C98.2391 3.98956 98.2391 3.61554 97.7072 3.61554C97.1459 3.61554 97.1459 3.96878 97.1459 4.28046V10.0154H88.9912C88.5775 10.0154 88.0457 10.0154 88.0457 10.3894C88.0457 10.7842 88.548 10.7842 88.9912 10.7842H97.1459V16.5192C97.1459 16.8101 97.1459 17.1841 97.6777 17.1841C98.2391 17.1841 98.2391 16.8308 98.2391 16.5192V10.7842Z" fill="black"/>
<path d="M119.269 13.901C120.54 12.8829 121.574 12.2387 123.051 11.3037C124.824 10.2232 125.592 9.70373 126.006 9.39205C128.074 7.95831 129.108 6.75315 129.108 6.58691C129.108 6.42068 128.872 6.42068 128.813 6.42068C128.606 6.42068 128.547 6.5038 128.399 6.64925C127.661 7.54274 126.951 7.97909 126.183 7.97909C125.563 7.97909 125.238 7.79209 124.676 7.29339C124.056 6.77392 123.554 6.42068 122.697 6.42068C120.54 6.42068 119.24 8.31155 119.24 8.74791C119.24 8.81025 119.269 8.93492 119.535 8.93492C119.772 8.93492 119.801 8.8518 119.89 8.70635C120.392 7.8752 121.81 7.72975 122.372 7.72975C122.992 7.72975 123.583 7.8752 124.204 8.06221C125.326 8.39467 125.799 8.39467 126.095 8.39467C126.301 8.39467 126.42 8.39467 126.567 8.37389C125.592 9.18426 123.997 10.1816 122.667 11.0336L119.683 12.966C117.881 14.2543 116.788 15.4802 116.788 15.6257C116.788 15.7504 116.935 15.7919 117.113 15.7919C117.29 15.7919 117.319 15.7711 117.526 15.5218C117.999 15.0023 118.944 14.2335 120.038 14.2335C120.658 14.2335 120.954 14.379 121.545 14.8984C122.106 15.3556 122.608 15.7919 123.554 15.7919C126.449 15.7919 128.104 13.153 128.104 12.6751C128.104 12.592 128.074 12.4673 127.779 12.4673C127.542 12.4673 127.513 12.5504 127.424 12.7582C126.774 13.9842 125.031 14.4829 123.879 14.4829C123.258 14.4829 122.667 14.3374 122.047 14.1504C120.865 13.8179 120.54 13.8179 120.156 13.8179C119.86 13.8179 119.535 13.8179 119.269 13.901Z" fill="black"/>
<path d="M136.655 18.0152C136.655 18.8464 135.887 20.1762 132.666 20.3217C132.518 20.3424 132.4 20.4256 132.4 20.5502C132.4 20.7788 132.725 20.7788 132.991 20.7788C135.857 20.7788 138.605 19.7606 138.634 18.1814V13.4439C138.634 12.6335 138.634 11.9686 139.816 11.2829C140.85 10.6803 141.973 10.6387 142.623 10.618C142.771 10.5972 142.889 10.5141 142.889 10.3894C142.889 10.1816 142.712 10.1816 142.416 10.1608C140.466 10.0777 139.048 9.32968 138.723 8.31152C138.634 8.08295 138.634 8.04139 138.634 7.29336V3.17916C138.634 2.30645 138.634 1.64152 137.216 0.85193C136.034 0.207788 133.996 0 132.991 0C132.725 0 132.4 -1.29495e-07 132.4 0.228567C132.4 0.436354 132.578 0.436353 132.873 0.457134C134.734 0.540248 136.182 1.20517 136.566 2.26489C136.655 2.4519 136.655 2.49346 136.655 3.24149V7.60504C136.655 8.56086 136.891 8.9141 137.837 9.57902C138.457 10.0154 139.314 10.2232 140.141 10.3894C137.719 10.8673 136.655 11.8231 136.655 13.0283V18.0152Z" fill="black"/>
<path d="M25.5787 65.6472C25.5787 67.1018 24.5446 67.8914 21.5604 68.7225C21.4127 68.7641 21.324 68.8472 21.324 68.9719C21.324 69.1381 21.3831 69.2004 21.6195 69.2628C25.5787 70.3433 25.5787 71.4653 25.5787 72.6289V78.3639C25.6082 78.9249 26.0514 79.6937 27.3514 80.3171C28.7992 81.0028 31.1924 81.4391 31.4583 81.4391C31.7538 81.4391 31.8424 81.356 31.8424 81.169C31.8424 80.982 31.7833 80.9612 31.3401 80.8573C30.4833 80.6288 28.1787 79.9846 27.706 78.7171C27.6173 78.4678 27.6173 78.4262 27.6173 77.6574V72.5666C27.6173 71.4861 27.6173 69.9692 22.8013 68.9926C27.6173 67.9537 27.6173 66.5407 27.6173 65.3771V60.2863C27.6173 59.1435 27.6173 58.063 31.6356 57.0241C31.8424 56.9825 31.8424 56.837 31.8424 56.7955C31.8424 56.6085 31.7538 56.5254 31.4583 56.5254C31.2515 56.5254 27.0855 57.1903 26.0514 58.5617C25.5787 59.185 25.5787 59.3721 25.5787 60.2655V65.6472Z" fill="black"/>
<path d="M40.2434 71.881C39.2093 73.107 38.2047 73.5225 36.7865 73.5849C36.4615 73.6057 36.2252 73.6057 36.2252 73.9797C36.2252 74.1044 36.3729 74.1875 36.5797 74.1875C37.1115 74.1875 38.4411 74.1459 38.9729 74.1459C39.8298 74.1459 40.7752 74.1875 41.6025 74.1875C41.7798 74.1875 42.1344 74.1875 42.1344 73.7927C42.1344 73.6057 41.898 73.5849 41.7207 73.5849C41.0412 73.5433 40.4798 73.3771 40.4798 72.8784C40.4798 72.5875 40.6571 72.3589 41.0412 71.9018L43.2867 69.2837H50.8209C50.8504 69.4707 50.8504 69.6369 50.88 69.8239C50.9686 70.3642 51.3232 72.5252 51.3232 72.92C51.3232 73.5433 49.8163 73.5849 49.3436 73.5849C49.0186 73.5849 48.6936 73.5849 48.6936 73.9589C48.6936 74.1875 48.9595 74.1875 49.1368 74.1875C49.6391 74.1875 50.23 74.1459 50.7323 74.1459H52.4164C54.2187 74.1459 55.5187 74.1875 55.5483 74.1875C55.7551 74.1875 56.0801 74.1875 56.0801 73.7927C56.0801 73.5849 55.8142 73.5849 55.371 73.5849C53.746 73.5849 53.7164 73.3979 53.6278 72.7745L51.8255 59.8085C51.7664 59.393 51.6482 59.3514 51.3232 59.3514C51.0277 59.3514 50.8504 59.393 50.5845 59.7046L40.2434 71.881ZM43.7889 68.6811L49.7277 61.6994L50.7323 68.6811H43.7889Z" fill="black"/>
<path d="M81.5264 62.5098C81.5264 62.1358 81.5264 61.7618 80.9355 61.7618C80.3445 61.7618 80.3445 62.1358 80.3445 62.5098V70.0317C80.3445 73.1485 75.5285 73.8135 73.3126 73.8135C71.983 73.8135 70.1216 73.6265 68.5557 72.92C66.2806 71.9018 66.2806 70.572 66.2806 70.0109V62.5098C66.2806 62.1358 66.2806 61.7618 65.6897 61.7618C65.0988 61.7618 65.0988 62.1358 65.0988 62.5098V70.1148C65.0988 73.2732 69.6193 74.6446 73.3126 74.6446C77.1536 74.6446 81.5264 73.1901 81.5264 70.1356V62.5098Z" fill="black"/>
<path d="M100.551 61.4085C100.817 60.6397 100.935 60.5982 102.087 60.5982H105.928C109.267 60.5982 109.267 62.5929 109.267 62.7799C109.267 64.463 106.873 66.6032 102.973 66.6032H98.7188L100.551 61.4085ZM105.544 66.7695C108.764 66.3539 111.689 64.7747 111.689 62.863C111.689 61.2423 109.651 59.9956 106.312 59.9956H96.8278C96.2665 59.9956 96.0006 59.9956 96.0006 60.3904C96.0006 60.5982 96.2665 60.5982 96.7097 60.5982C98.512 60.5982 98.512 60.7644 98.512 60.993C98.512 61.0345 98.512 61.1592 98.3938 61.4709L94.4051 72.6499C94.1391 73.3771 94.0801 73.5849 92.0118 73.5849C91.4505 73.5849 91.155 73.5849 91.155 73.9589C91.155 74.1875 91.3323 74.1875 91.9232 74.1875H102.057C106.578 74.1875 110.064 71.7771 110.064 69.6785C110.064 67.9746 107.937 66.9357 105.544 66.7695ZM101.348 73.5849H97.3597C96.946 73.5849 96.8869 73.5849 96.7097 73.5641C96.3846 73.5433 96.3551 73.5018 96.3551 73.3356C96.3551 73.1901 96.4142 73.0654 96.4733 72.8784L98.5415 67.0188H104.096C107.583 67.0188 107.583 69.3045 107.583 69.4707C107.583 71.4655 105.012 73.5849 101.348 73.5849Z" fill="black"/>
<path d="M122.838 72.3173C122.838 71.6316 122.838 70.3433 126.62 69.2836C127.004 69.1797 127.063 69.1797 127.063 68.9719C127.063 68.9303 127.063 68.7849 126.856 68.7433C122.838 67.642 122.838 66.52 122.838 65.3356V59.6006C122.779 58.4786 121.479 57.8344 121.006 57.6059C119.736 57.0033 117.254 56.5254 116.929 56.5254C116.633 56.5254 116.545 56.6293 116.545 56.7955C116.545 56.9825 116.692 57.0241 116.899 57.0656C120.799 58.1046 120.799 59.1435 120.799 60.3071V65.3979C120.799 66.5408 120.799 67.9537 125.586 68.9719C120.799 70.0939 120.799 71.2991 120.799 72.5874V77.6782C120.799 78.7587 120.799 79.86 117.017 80.8573C116.663 80.9612 116.545 80.982 116.545 81.169C116.545 81.3352 116.633 81.4391 116.929 81.4391C116.958 81.4391 120.858 80.9197 122.247 79.5483C122.838 78.9457 122.838 78.4886 122.838 77.699V72.3173Z" fill="black"/>
<path d="M56.6397 156.459C56.6397 154.173 54.3942 150.662 49.2532 148.833C52.4442 147.628 56.2556 145.197 56.6102 141.311L56.6397 141.187V126.787C56.6397 125.083 56.6397 124.709 56.8761 123.919C57.4079 122.257 58.8261 120.2 62.5785 118.642C62.8148 118.538 62.8444 118.517 62.8444 118.143C62.8444 117.686 62.8148 117.665 62.1648 117.665C61.633 117.665 61.5739 117.665 60.7762 117.998C54.1579 120.636 53.7738 124.501 53.7738 125.229V140.002C53.7738 141.498 53.7738 143.181 52.2374 145.093C50.8782 146.797 49.2828 147.649 48.0123 148.251C47.5986 148.438 47.5691 148.459 47.5691 148.812C47.5691 149.186 47.5986 149.207 47.835 149.311C50.3464 150.475 53.0351 152.324 53.6851 155.711C53.7738 156.168 53.7738 156.21 53.7738 156.459V172.417C53.7738 174.1 55.2511 177.591 60.9534 179.711C61.633 179.981 61.6921 179.981 62.1648 179.981C62.8148 179.981 62.8444 179.96 62.8444 179.503C62.8444 179.129 62.8148 179.108 62.6967 179.066C61.4262 178.505 57.5557 176.864 56.7579 173.248C56.6397 172.708 56.6397 172.667 56.6397 172.396V156.459Z" fill="black"/>
<path d="M76.2551 137.023C76.2551 136.649 76.2157 136.635 75.6838 136.635C74.8762 137.189 73.8323 137.522 71.961 137.522V137.979C72.4929 137.979 73.5565 137.979 74.699 137.605V144.711C74.699 145.224 74.6399 145.39 72.7686 145.39H72.0792V145.847C72.8868 145.805 74.5808 145.805 75.4672 145.805C76.3535 145.805 78.0672 145.805 78.8748 145.847V145.39H78.1854C76.3141 145.39 76.2551 145.224 76.2551 144.711V137.023Z" fill="black"/>
<path d="M80.5345 148.418H70.0701V149.249H80.5345V148.418Z" fill="black"/>
<path d="M75.6248 158.368C75.9399 158.16 76.7672 157.703 77.0824 157.509C78.3036 156.719 79.4658 155.957 79.4658 154.697C79.4658 153.048 77.496 151.982 75.0338 151.982C72.6702 151.982 71.1141 153.242 71.1141 154.475C71.1141 155.154 71.8823 155.251 72.158 155.251C72.5717 155.251 73.1823 155.043 73.1823 154.517C73.1823 153.796 72.1974 153.796 71.9611 153.796C72.5323 152.785 73.852 152.439 74.8172 152.439C76.649 152.439 77.5945 153.533 77.5945 154.697C77.5945 156.137 76.1566 157.19 73.8323 158.866L71.3504 160.667C71.1141 160.82 71.1141 160.847 71.1141 161.194H78.8945L79.4658 158.714H78.8551C78.796 158.991 78.6385 159.684 78.4021 159.947C78.2839 160.058 76.7869 160.058 76.4718 160.058H72.9656L75.6248 158.368Z" fill="black"/>
<path d="M93.9484 170.859C93.9484 172.563 93.9484 172.937 93.712 173.726C93.1802 175.389 91.762 177.425 88.0096 179.004C87.7733 179.108 87.7437 179.129 87.7437 179.503C87.7437 179.981 87.7733 179.981 88.4528 179.981C88.9551 179.981 89.0142 179.981 89.8119 179.648C96.4302 177.009 96.8143 173.144 96.8143 172.417V157.643C96.8143 156.147 96.8143 154.464 98.3507 152.553C99.6508 150.932 101.158 150.059 102.576 149.394C102.989 149.207 103.019 149.186 103.019 148.812C103.019 148.542 103.019 148.438 102.901 148.376C101.512 147.753 97.6712 146.028 96.903 141.935C96.8143 141.478 96.8143 141.436 96.8143 141.187V125.229C96.8143 123.545 95.337 120.055 89.6347 117.935C88.9551 117.665 88.896 117.665 88.4528 117.665C87.7733 117.665 87.7437 117.665 87.7437 118.143C87.7437 118.475 87.7437 118.538 87.9505 118.621C93.5643 120.969 93.9484 124.439 93.9484 125.249V141.187C93.9484 143.472 96.1939 146.984 101.335 148.812C98.1439 150.018 94.3325 152.449 93.9779 156.334L93.9484 156.459V170.859Z" fill="black"/>
</svg>
