<svg width="56" height="63" viewBox="0 0 56 63" fill="none" xmlns="http://www.w3.org/2000/svg">
<path d="M9.07063 38.794C9.07063 36.5083 6.82513 32.9967 1.68412 31.1682C4.8751 29.963 8.68654 27.5319 9.04109 23.6463L9.07063 23.5216V9.12189C9.07063 7.41803 9.07063 7.04401 9.307 6.25442C9.83883 4.59211 11.257 2.53501 15.0094 0.976603C15.2458 0.872709 15.2753 0.85193 15.2753 0.477912C15.2753 0.0207785 15.2458 0 14.5957 0C14.0639 0 14.0048 -2.58991e-08 13.2071 0.332461C6.58877 2.97137 6.20467 6.83622 6.20467 7.56348V22.3372C6.20467 23.8333 6.20467 25.5164 4.66827 27.428C3.30916 29.1319 1.71367 29.9838 0.443192 30.5864C0.0295455 30.7734 0 30.7942 0 31.1474C0 31.5214 0.0295456 31.5422 0.265915 31.6461C2.77733 32.8097 5.46602 34.659 6.11603 38.046C6.20467 38.5031 6.20467 38.5447 6.20467 38.794V54.7521C6.20467 56.4352 7.68197 59.926 13.3844 62.0455C14.0639 62.3156 14.123 62.3156 14.5957 62.3156C15.2458 62.3156 15.2753 62.2948 15.2753 61.8377C15.2753 61.4637 15.2458 61.4429 15.1276 61.4013C13.8571 60.8403 9.98656 59.1988 9.18882 55.5833C9.07063 55.043 9.07063 55.0015 9.07063 54.7313V38.794Z" fill="black"/>
<path d="M28.686 19.3579C28.686 18.9839 28.6466 18.97 28.1147 18.97C27.3071 19.5241 26.2632 19.8566 24.3919 19.8566V20.3137C24.9238 20.3137 25.9874 20.3137 27.1299 19.9397V27.0461C27.1299 27.5586 27.0708 27.7248 25.1995 27.7248H24.5101V28.182C25.3177 28.1404 27.0117 28.1404 27.8981 28.1404C28.7844 28.1404 30.4981 28.1404 31.3057 28.182V27.7248H30.6163C28.7451 27.7248 28.686 27.5586 28.686 27.0461V19.3579Z" fill="black"/>
<path d="M32.9654 30.7529H22.501V31.5841H32.9654V30.7529Z" fill="black"/>
<path d="M28.0557 40.7027C28.3708 40.4949 29.1981 40.0377 29.5133 39.8438C30.7345 39.0542 31.8967 38.2923 31.8967 37.0317C31.8967 35.3833 29.9269 34.3167 27.4648 34.3167C25.1011 34.3167 23.545 35.5772 23.545 36.8101C23.545 37.4889 24.3132 37.5858 24.5889 37.5858C25.0026 37.5858 25.6132 37.3781 25.6132 36.8517C25.6132 36.1313 24.6283 36.1313 24.392 36.1313C24.9632 35.1201 26.2829 34.7738 27.2481 34.7738C29.0799 34.7738 30.0254 35.8681 30.0254 37.0317C30.0254 38.4724 28.5875 39.5252 26.2632 41.2014L23.7814 43.0022C23.545 43.1546 23.545 43.1823 23.545 43.5286H31.3254L31.8967 41.049H31.286C31.227 41.326 31.0694 42.0187 30.833 42.2819C30.7148 42.3927 29.2178 42.3927 28.9027 42.3927H25.3965L28.0557 40.7027Z" fill="black"/>
<path d="M46.3793 53.1937C46.3793 54.8976 46.3793 55.2716 46.1429 56.0612C45.6111 57.7235 44.1929 59.7598 40.4405 61.339C40.2042 61.4429 40.1746 61.4637 40.1746 61.8377C40.1746 62.3156 40.2042 62.3156 40.8837 62.3156C41.386 62.3156 41.4451 62.3156 42.2428 61.9831C48.8612 59.3442 49.2453 55.4794 49.2453 54.7521V39.9784C49.2453 38.4823 49.2453 36.7992 50.7817 34.8876C52.0817 33.2668 53.5885 32.3941 55.0067 31.7292C55.4204 31.5422 55.4499 31.5214 55.4499 31.1474C55.4499 30.8773 55.4499 30.7734 55.3317 30.711C53.9431 30.0877 50.1021 28.363 49.3339 24.2696C49.2453 23.8125 49.2453 23.7709 49.2453 23.5216V7.56348C49.2453 5.8804 47.768 2.38956 42.0656 0.270124C41.386 0 41.3269 0 40.8837 0C40.2042 0 40.1746 -5.17982e-08 40.1746 0.477912C40.1746 0.810373 40.1746 0.872709 40.3814 0.955825C45.9952 3.30383 46.3793 6.77389 46.3793 7.58426V23.5216C46.3793 25.8073 48.6248 29.3189 53.7658 31.1474C50.5748 32.3526 46.7634 34.7837 46.4088 38.6693L46.3793 38.794V53.1937Z" fill="black"/>
</svg>
